<svg width="19" height="19" viewBox="0 0 19 19" fill="none" xmlns="http://www.w3.org/2000/svg">
<path fill-rule="evenodd" clip-rule="evenodd" d="M5.61364 1.51136C5.61364 0.677091 6.29073 0 7.125 0H11.875C12.7093 0 13.3864 0.677091 13.3864 1.51136V3.45455H17.4886C18.3229 3.45455 19 4.13164 19 4.96591V17.4886C19 17.8895 18.8408 18.2739 18.5573 18.5573C18.2739 18.8408 17.8895 19 17.4886 19H1.51136C1.11053 19 0.726104 18.8408 0.442668 18.5573C0.159232 18.2739 0 17.8895 0 17.4886V4.96591C0 4.13164 0.677091 3.45455 1.51136 3.45455H5.61364V1.51136ZM1.29545 10.355V17.4886C1.29545 17.6078 1.39218 17.7045 1.51136 17.7045H17.4886C17.5459 17.7045 17.6008 17.6818 17.6413 17.6413C17.6818 17.6008 17.7045 17.5459 17.7045 17.4886V10.355C17.0419 10.9192 16.1998 11.2285 15.3295 11.2273H3.67045C2.8002 11.2285 1.95806 10.9192 1.29545 10.355ZM17.7045 7.55682C17.7045 8.18671 17.4543 8.7908 17.0089 9.2362C16.5635 9.6816 15.9594 9.93182 15.3295 9.93182H3.67045C3.04057 9.93182 2.43647 9.6816 1.99108 9.2362C1.54568 8.7908 1.29545 8.18671 1.29545 7.55682V4.96591C1.29545 4.90865 1.3182 4.85373 1.35869 4.81324C1.39918 4.77275 1.4541 4.75 1.51136 4.75H17.4886C17.5459 4.75 17.6008 4.77275 17.6413 4.81324C17.6818 4.85373 17.7045 4.90865 17.7045 4.96591V7.55682ZM12.0909 1.51136V3.45455H6.90909V1.51136C6.90909 1.4541 6.93184 1.39918 6.97233 1.35869C7.01282 1.3182 7.06774 1.29545 7.125 1.29545H11.875C11.9323 1.29545 11.9872 1.3182 12.0277 1.35869C12.0682 1.39918 12.0909 1.4541 12.0909 1.51136Z" fill="#838A9D"/>
</svg>
