<svg width="10" height="10" viewBox="0 0 10 10" fill="none" xmlns="http://www.w3.org/2000/svg">
<path d="M3.67115 5L0.275213 1.60406C-0.0917377 1.23711 -0.0917377 0.642164 0.275213 0.275213C0.642164 -0.0917377 1.23711 -0.0917377 1.60406 0.275213L5 3.67115L8.39594 0.275213C8.76289 -0.0917377 9.35784 -0.0917377 9.72479 0.275213C10.0917 0.642164 10.0917 1.23711 9.72479 1.60406L6.32885 5L9.72479 8.39594C10.0917 8.76289 10.0917 9.35784 9.72479 9.72479C9.35784 10.0917 8.76289 10.0917 8.39594 9.72479L5 6.32885L1.60406 9.72479C1.23711 10.0917 0.642164 10.0917 0.275213 9.72479C-0.0917377 9.35784 -0.0917377 8.76289 0.275213 8.39594L3.67115 5Z" fill="#1C2E45" fill-opacity="0.6"/>
</svg>
