<svg width="17" height="17" viewBox="0 0 17 17" fill="none" xmlns="http://www.w3.org/2000/svg">
<path d="M11.0002 1.992C11.0002 2.016 11.0002 2.016 11.0002 2.016L9.22419 4.008H3.99219C3.46419 4.008 3.00819 4.44 3.00819 4.992V13.008C3.00819 13.536 3.44019 13.992 3.99219 13.992H6.53619C6.84819 14.04 7.16019 14.04 7.47219 13.992H12.0082C12.5362 13.992 12.9922 13.56 12.9922 13.008V8.784L14.9362 6.624L15.0082 6.672V12.984C15.0082 14.664 13.6642 16.008 12.0082 16.008H4.01619C2.33619 16.008 0.992188 14.664 0.992188 12.984V4.992C0.992188 3.336 2.33619 1.992 4.01619 1.992H11.0002ZM12.2722 3.624L13.6162 5.112L8.72019 10.68C8.50419 10.92 7.83219 11.232 6.68019 11.616C6.65619 11.64 6.60819 11.64 6.56019 11.616C6.46419 11.592 6.39219 11.472 6.44019 11.376C6.75219 10.248 7.04019 9.552 7.25619 9.312L12.2722 3.624ZM12.9202 2.856L14.2882 1.32C14.6482 0.911996 15.2722 0.887996 15.6802 1.272C16.0882 1.632 16.1122 2.28 15.7522 2.688L14.2642 4.368L12.9202 2.856Z" fill="#1676F3"/>
</svg>
