<svg width="12" height="16" viewBox="0 0 12 16" fill="none" xmlns="http://www.w3.org/2000/svg">
<path fill-rule="evenodd" clip-rule="evenodd" d="M4.625 2.25C4.625 2.11193 4.7276 2 4.85417 2H7.14583C7.2724 2 7.375 2.11193 7.375 2.25V3.5H4.625V2.25ZM8.75 2.25V3.5H10.8125C11.1922 3.5 11.5 3.83579 11.5 4.25C11.5 4.66421 11.1922 5 10.8125 5H1.1875C0.807808 5 0.5 4.66421 0.5 4.25C0.5 3.83579 0.807808 3.5 1.1875 3.5H3.25V2.25C3.25 1.2835 3.96821 0.5 4.85417 0.5H7.14583C8.03179 0.5 8.75 1.2835 8.75 2.25ZM2.78825 7.17537C2.75047 6.76321 2.41357 6.4625 2.03576 6.50372C1.65794 6.54493 1.38229 6.91247 1.42008 7.32462L2.02503 13.9241C2.10704 14.8187 2.79709 15.5 3.62123 15.5H8.37875C9.20293 15.5 9.89299 14.8187 9.97494 13.9241L10.5799 7.32462C10.6177 6.91247 10.3421 6.54493 9.96422 6.50372C9.58646 6.4625 9.24949 6.76321 9.21173 7.17537L8.60682 13.7749C8.59508 13.9027 8.49645 14 8.37875 14H3.62123C3.5035 14 3.40492 13.9027 3.3932 13.7749L2.78825 7.17537Z" fill="#FF4E58"/>
</svg>
