<svg width="12" height="12" viewBox="0 0 12 12" fill="none" xmlns="http://www.w3.org/2000/svg">
<path d="M5.21834 5.21836H1.22329C0.791603 5.21836 0.44165 5.56831 0.44165 6C0.44165 6.43169 0.791603 6.78164 1.22329 6.78164H5.21834V10.7767C5.21834 11.2084 5.5683 11.5583 5.99998 11.5583C6.43167 11.5583 6.78162 11.2084 6.78162 10.7767V6.78164H10.7767C11.2084 6.78164 11.5583 6.43169 11.5583 6C11.5583 5.56831 11.2084 5.21836 10.7767 5.21836H6.78162V1.22331C6.78162 0.791618 6.43167 0.441666 5.99998 0.441666C5.5683 0.441666 5.21834 0.791618 5.21834 1.22331V5.21836Z" fill="#1C2E45" fill-opacity="0.6"/>
</svg>
