<svg width="20" height="20" viewBox="0 0 20 20" fill="none" xmlns="http://www.w3.org/2000/svg">
<path fill-rule="evenodd" clip-rule="evenodd" d="M13.6364 10C13.6364 12.0083 12.0083 13.6364 10 13.6364C7.99169 13.6364 6.36364 12.0083 6.36364 10C6.36364 7.99169 7.99169 6.36364 10 6.36364C12.0083 6.36364 13.6364 7.99169 13.6364 10ZM12.2727 10C12.2727 11.2552 11.2552 12.2727 10 12.2727C8.74481 12.2727 7.72727 11.2552 7.72727 10C7.72727 8.74481 8.74481 7.72727 10 7.72727C11.2552 7.72727 12.2727 8.74481 12.2727 10Z" fill="#838A9D"/>
<path fill-rule="evenodd" clip-rule="evenodd" d="M10 0C9.75652 0 9.51495 0.00871458 9.27562 0.0258643C8.58148 0.075603 8.05242 0.586112 7.90077 1.21071L7.58073 2.52882C7.56346 2.59996 7.49934 2.68534 7.37676 2.72958C7.15078 2.81113 6.92972 2.9029 6.71413 3.00432C6.59636 3.05972 6.49069 3.04474 6.42814 3.00663L5.26968 2.30082C4.72105 1.96656 3.98639 1.97947 3.46037 2.43454C3.09421 2.75131 2.75131 3.09421 2.43454 3.46037C1.97947 3.98639 1.96656 4.72105 2.30082 5.26968L3.00663 6.42814C3.04474 6.49069 3.05972 6.59636 3.00432 6.71413C2.9029 6.92972 2.81113 7.15078 2.72958 7.37676C2.68534 7.49934 2.59996 7.56346 2.52882 7.58073L1.21071 7.90077C0.586113 8.05242 0.0756031 8.58147 0.0258643 9.27562C0.00871458 9.51495 0 9.75652 0 10C0 10.2435 0.00871458 10.485 0.0258643 10.7244C0.075603 11.4185 0.586112 11.9476 1.21071 12.0992L2.52882 12.4193C2.59996 12.4365 2.68534 12.5007 2.72958 12.6232C2.81113 12.8492 2.9029 13.0703 3.00432 13.2859C3.05972 13.4036 3.04474 13.5093 3.00663 13.5719L2.30082 14.7303C1.96655 15.2789 1.97947 16.0136 2.43454 16.5396C2.7513 16.9058 3.09421 17.2487 3.46037 17.5655C3.98639 18.0205 4.72105 18.0334 5.26968 17.6992L6.42814 16.9934C6.49069 16.9553 6.59636 16.9403 6.71413 16.9957C6.92972 17.0971 7.15078 17.1889 7.37676 17.2704C7.49934 17.3147 7.56346 17.4 7.58073 17.4712L7.90077 18.7893C8.05242 19.4139 8.58148 19.9244 9.27562 19.9741C9.51495 19.9913 9.75652 20 10 20C10.2435 20 10.485 19.9913 10.7244 19.9741C11.4185 19.9244 11.9476 19.4139 12.0992 18.7893L12.4193 17.4712C12.4365 17.4 12.5007 17.3147 12.6232 17.2704C12.8492 17.1889 13.0703 17.0971 13.2859 16.9957C13.4036 16.9403 13.5093 16.9553 13.5719 16.9934L14.7303 17.6992C15.2789 18.0334 16.0136 18.0205 16.5396 17.5655C16.9058 17.2487 17.2487 16.9058 17.5655 16.5396C18.0205 16.0136 18.0334 15.2789 17.6992 14.7303L16.9934 13.5719C16.9553 13.5093 16.9403 13.4036 16.9957 13.2859C17.0971 13.0703 17.1889 12.8492 17.2704 12.6232C17.3147 12.5007 17.4 12.4365 17.4712 12.4193L18.7893 12.0992C19.4139 11.9476 19.9244 11.4185 19.9741 10.7244C19.9913 10.485 20 10.2435 20 10C20 9.75652 19.9913 9.51495 19.9741 9.27562C19.9244 8.58148 19.4139 8.05242 18.7893 7.90077L17.4712 7.58073C17.4 7.56346 17.3147 7.49934 17.2704 7.37676C17.1889 7.15078 17.0971 6.92972 16.9957 6.71413C16.9403 6.59637 16.9553 6.49069 16.9934 6.42814L17.6992 5.26968C18.0334 4.72105 18.0205 3.98639 17.5655 3.46037C17.2487 3.09421 16.9058 2.7513 16.5396 2.43454C16.0136 1.97947 15.2789 1.96656 14.7303 2.30082L13.5719 3.00663C13.5093 3.04474 13.4036 3.05972 13.2859 3.00432C13.0703 2.9029 12.8492 2.81113 12.6232 2.72958C12.5007 2.68534 12.4365 2.59996 12.4193 2.52882L12.0992 1.21071C11.9476 0.586112 11.4185 0.075603 10.7244 0.0258643C10.485 0.00871458 10.2435 0 10 0ZM9.37308 1.38601C9.58001 1.37119 9.78907 1.36364 10 1.36364C10.2109 1.36364 10.42 1.37119 10.6269 1.38601C10.6774 1.38963 10.7496 1.43159 10.7741 1.53245L11.0941 2.85057C11.2325 3.42047 11.6624 3.83257 12.1604 4.01225C12.3462 4.07931 12.528 4.15479 12.7054 4.23823C13.1847 4.46373 13.7804 4.47637 14.2814 4.17115L15.4398 3.46534C15.5284 3.41136 15.6092 3.43268 15.6475 3.46581C15.964 3.73962 16.2604 4.03604 16.5342 4.35254C16.5673 4.39084 16.5886 4.47158 16.5347 4.56017L15.8289 5.71863C15.5236 6.2196 15.5363 6.81529 15.7618 7.29462C15.8452 7.47199 15.9207 7.65382 15.9877 7.83964C16.1674 8.33756 16.5795 8.76749 17.1494 8.90587L18.4675 9.22591C18.5684 9.2504 18.6104 9.3226 18.614 9.37308C18.6288 9.58001 18.6364 9.78907 18.6364 10C18.6364 10.2109 18.6288 10.42 18.614 10.6269C18.6104 10.6774 18.5684 10.7496 18.4675 10.7741L17.1494 11.0941C16.5795 11.2325 16.1674 11.6624 15.9877 12.1604C15.9207 12.3462 15.8452 12.528 15.7618 12.7054C15.5363 13.1847 15.5236 13.7804 15.8289 14.2814L16.5347 15.4398C16.5886 15.5284 16.5673 15.6092 16.5342 15.6475C16.2604 15.964 15.964 16.2604 15.6475 16.5342C15.6092 16.5673 15.5284 16.5886 15.4398 16.5347L14.2814 15.8289C13.7804 15.5236 13.1847 15.5363 12.7054 15.7618C12.528 15.8452 12.3462 15.9207 12.1604 15.9877C11.6624 16.1674 11.2325 16.5795 11.0941 17.1494L10.7741 18.4675C10.7496 18.5684 10.6774 18.6104 10.6269 18.614C10.42 18.6288 10.2109 18.6364 10 18.6364C9.78907 18.6364 9.58001 18.6288 9.37308 18.614C9.3226 18.6104 9.2504 18.5684 9.22591 18.4675L8.90587 17.1494C8.76749 16.5795 8.33756 16.1674 7.83964 15.9877C7.65382 15.9207 7.47199 15.8452 7.29462 15.7618C6.81529 15.5363 6.2196 15.5236 5.71863 15.8289L4.56017 16.5347C4.47158 16.5886 4.39083 16.5673 4.35254 16.5342C4.03604 16.2604 3.73962 15.964 3.46581 15.6475C3.43268 15.6092 3.41136 15.5284 3.46534 15.4398L4.17115 14.2814C4.47637 13.7804 4.46373 13.1847 4.23823 12.7054C4.15479 12.528 4.07931 12.3462 4.01225 12.1604C3.83257 11.6624 3.42047 11.2325 2.85057 11.0941L1.53245 10.7741C1.43159 10.7496 1.38963 10.6774 1.38601 10.6269C1.37119 10.42 1.36364 10.2109 1.36364 10C1.36364 9.78907 1.37119 9.58001 1.38601 9.37308C1.38963 9.3226 1.43159 9.2504 1.53245 9.22591L2.85057 8.90587C3.42047 8.76749 3.83257 8.33756 4.01225 7.83964C4.07931 7.65382 4.15479 7.47199 4.23823 7.29462C4.46373 6.81529 4.47637 6.2196 4.17115 5.71863L3.46534 4.56018C3.41136 4.47158 3.43268 4.39084 3.46581 4.35254C3.73962 4.03604 4.03604 3.73962 4.35254 3.46581C4.39084 3.43268 4.47158 3.41136 4.56017 3.46534L5.71863 4.17115C6.2196 4.47637 6.81529 4.46373 7.29462 4.23823C7.47199 4.15479 7.65382 4.07931 7.83964 4.01225C8.33756 3.83257 8.76749 3.42047 8.90587 2.85057L9.22591 1.53245C9.2504 1.43159 9.3226 1.38963 9.37308 1.38601Z" fill="#838A9D"/>
</svg>
