<svg width="18" height="18" viewBox="0 0 18 18" fill="none" xmlns="http://www.w3.org/2000/svg">
<path d="M3.73171 9.42857C3.36801 9.42857 3.07317 9.71639 3.07317 10.0714C3.07317 10.4265 3.36801 10.7143 3.73171 10.7143H4.17073C4.53443 10.7143 4.82927 10.4265 4.82927 10.0714C4.82927 9.71639 4.53443 9.42857 4.17073 9.42857H3.73171Z" fill="#838A9D"/>
<path d="M3.07317 7.07143C3.07317 6.71639 3.36801 6.42857 3.73171 6.42857H4.17073C4.53443 6.42857 4.82927 6.71639 4.82927 7.07143C4.82927 7.42647 4.53443 7.71429 4.17073 7.71429H3.73171C3.36801 7.71429 3.07317 7.42647 3.07317 7.07143Z" fill="#838A9D"/>
<path d="M3.73171 3.42857C3.36801 3.42857 3.07317 3.71639 3.07317 4.07143C3.07317 4.42647 3.36801 4.71429 3.73171 4.71429H4.17073C4.53443 4.71429 4.82927 4.42647 4.82927 4.07143C4.82927 3.71639 4.53443 3.42857 4.17073 3.42857H3.73171Z" fill="#838A9D"/>
<path d="M6.14634 10.0714C6.14634 9.71639 6.44118 9.42857 6.80488 9.42857H7.2439C7.6076 9.42857 7.90244 9.71639 7.90244 10.0714C7.90244 10.4265 7.6076 10.7143 7.2439 10.7143H6.80488C6.44118 10.7143 6.14634 10.4265 6.14634 10.0714Z" fill="#838A9D"/>
<path d="M6.80488 6.42857C6.44118 6.42857 6.14634 6.71639 6.14634 7.07143C6.14634 7.42647 6.44118 7.71429 6.80488 7.71429H7.2439C7.6076 7.71429 7.90244 7.42647 7.90244 7.07143C7.90244 6.71639 7.6076 6.42857 7.2439 6.42857H6.80488Z" fill="#838A9D"/>
<path d="M6.14634 4.07143C6.14634 3.71639 6.44118 3.42857 6.80488 3.42857H7.2439C7.6076 3.42857 7.90244 3.71639 7.90244 4.07143C7.90244 4.42647 7.6076 4.71429 7.2439 4.71429H6.80488C6.44118 4.71429 6.14634 4.42647 6.14634 4.07143Z" fill="#838A9D"/>
<path d="M9.87805 9.42857C9.51435 9.42857 9.21951 9.71639 9.21951 10.0714C9.21951 10.4265 9.51435 10.7143 9.87805 10.7143H10.3171C10.6808 10.7143 10.9756 10.4265 10.9756 10.0714C10.9756 9.71639 10.6808 9.42857 10.3171 9.42857H9.87805Z" fill="#838A9D"/>
<path d="M9.21951 7.07143C9.21951 6.71639 9.51435 6.42857 9.87805 6.42857H10.3171C10.6808 6.42857 10.9756 6.71639 10.9756 7.07143C10.9756 7.42647 10.6808 7.71429 10.3171 7.71429H9.87805C9.51435 7.71429 9.21951 7.42647 9.21951 7.07143Z" fill="#838A9D"/>
<path d="M9.87805 3.42857C9.51435 3.42857 9.21951 3.71639 9.21951 4.07143C9.21951 4.42647 9.51435 4.71429 9.87805 4.71429H10.3171C10.6808 4.71429 10.9756 4.42647 10.9756 4.07143C10.9756 3.71639 10.6808 3.42857 10.3171 3.42857H9.87805Z" fill="#838A9D"/>
<path fill-rule="evenodd" clip-rule="evenodd" d="M0 16.2857C0 17.2325 0.786231 18 1.7561 18H5.04878C5.41248 18 5.70732 17.7122 5.70732 17.3571V15.4286H8.34146V17.3571C8.34146 17.7122 8.6363 18 9 18H12.2927C12.3737 18 12.4534 17.9946 12.5315 17.9843C12.5783 17.9946 12.6269 18 12.6768 18H16.2442C17.2142 18 18 17.2323 18 16.2857V9.74999C18 9.2104 17.7398 8.70231 17.2976 8.37856L16.4195 7.7357C16.1286 7.52268 15.7158 7.58024 15.4976 7.86427C15.2793 8.1483 15.3383 8.55125 15.6293 8.76427L16.5073 9.40713C16.6179 9.48807 16.6829 9.61509 16.6829 9.74999V16.2857C16.6829 16.5226 16.4864 16.7143 16.2442 16.7143H13.9935C14.0296 16.5773 14.0488 16.4337 14.0488 16.2857V1.71429C14.0488 0.767513 13.2625 0 12.2927 0H1.7561C0.786232 0 0 0.767513 0 1.71429V16.2857ZM1.7561 16.7143C1.51363 16.7143 1.31707 16.5224 1.31707 16.2857V1.71429C1.31707 1.47759 1.51363 1.28571 1.7561 1.28571H12.2927C12.5351 1.28571 12.7317 1.47759 12.7317 1.71429V16.2857C12.7317 16.5224 12.5351 16.7143 12.2927 16.7143H9.65854V14.7857C9.65854 14.4307 9.3637 14.1429 9 14.1429H5.04878C4.68508 14.1429 4.39024 14.4307 4.39024 14.7857V16.7143H1.7561Z" fill="#838A9D"/>
</svg>
