<svg
  width="16"
  height="12"
  viewBox="0 0 16 12"
  fill="none"
  xmlns="http://www.w3.org/2000/svg"
>
<path
    d="M0 1.008C0 0.456 0.432 0 0.984 0H15C15.552 0 15.984 0.432 15.984 1.008C15.984 1.56 15.552 1.992 15 1.992H0.984C0.432 1.992 0 1.56 0 1.008ZM0 6C0 5.448 0.432 4.992 0.984 4.992H15C15.552 4.992 15.984 5.448 15.984 6C15.984 6.552 15.552 7.008 15 7.008H0.984C0.432 7.008 0 6.552 0 6ZM0 10.992C0 10.44 0.432 10.008 0.984 10.008H15C15.552 10.008 15.984 10.44 15.984 10.992C15.984 11.544 15.552 12 15 12H0.984C0.432 12 0 11.544 0 10.992Z"
    fill="#CECFD0"
  />
</svg>
