<svg width="19" height="17" viewBox="0 0 19 17" fill="none" xmlns="http://www.w3.org/2000/svg">
<path d="M1.32558 0.6375C1.32558 0.285418 1.02884 0 0.662791 0C0.296741 0 0 0.285418 0 0.6375V16.3625C0 16.7146 0.296741 17 0.662791 17H16.7907C17.1567 17 17.4535 16.7146 17.4535 16.3625C17.4535 16.0104 17.1567 15.725 16.7907 15.725H1.32558V0.6375Z" fill="#838A9D"/>
<path d="M18.8059 4.91328C19.0647 4.66432 19.0647 4.26068 18.8059 4.01172C18.547 3.76276 18.1274 3.76276 17.8685 4.01172L12.814 8.87344L9.5268 5.71172C9.26797 5.46276 8.84831 5.46276 8.58948 5.71172L3.28715 10.8117C3.02831 11.0607 3.02831 11.4643 3.28715 11.7133C3.54599 11.9622 3.96564 11.9622 4.22448 11.7133L9.05814 7.06406L12.3453 10.2258C12.6041 10.4747 13.0238 10.4747 13.2826 10.2258L18.8059 4.91328Z" fill="#838A9D"/>
</svg>
