<svg width="16" height="16" viewBox="0 0 16 16" fill="none" xmlns="http://www.w3.org/2000/svg">
<path d="M8.89988 7.72725L10.9499 9.77725C11.3014 10.1287 11.3014 10.6986 10.9499 11.05C10.5984 11.4015 10.0286 11.4015 9.67709 11.05L7.43627 8.80923C7.42402 8.79698 7.4122 8.78447 7.4008 8.7717C7.21614 8.60688 7.09988 8.36704 7.09988 8.10005V3.40005C7.09988 2.90299 7.50282 2.50005 7.99988 2.50005C8.49693 2.50005 8.89988 2.90299 8.89988 3.40005V7.72725ZM7.99988 16C3.5816 16 -0.00012207 12.4183 -0.00012207 8.00005C-0.00012207 3.58177 3.5816 4.57764e-05 7.99988 4.57764e-05C12.4182 4.57764e-05 15.9999 3.58177 15.9999 8.00005C15.9999 12.4183 12.4182 16 7.99988 16ZM7.99988 14.35C11.5069 14.35 14.3499 11.5071 14.3499 8.00005C14.3499 4.49304 11.5069 1.65005 7.99988 1.65005C4.49287 1.65005 1.64988 4.49304 1.64988 8.00005C1.64988 11.5071 4.49287 14.35 7.99988 14.35Z" fill="#1C2E45" fill-opacity="0.6"/>
</svg>
