<svg width="15" height="15" viewBox="0 0 15 15" fill="none" xmlns="http://www.w3.org/2000/svg">
<path fill-rule="evenodd" clip-rule="evenodd" d="M10.5126 0.92681C11.196 0.24339 12.304 0.243392 12.9874 0.92681L14.0732 2.0126C14.7566 2.69601 14.7566 3.80405 14.0732 4.48747L5.46358 13.0971C5.25328 13.3074 4.99286 13.4606 4.7069 13.5423L1.45606 14.4711C1.19416 14.546 0.912292 14.4729 0.719692 14.2803C0.527092 14.0877 0.454049 13.8059 0.528872 13.544L1.45769 10.2931C1.53939 10.0072 1.69262 9.74673 1.90292 9.53643L10.5126 0.92681ZM11.9268 1.98747C11.8291 1.88984 11.6708 1.88984 11.5732 1.98747L10.3106 3.25003L11.75 4.68937L13.0126 3.42681C13.1102 3.32918 13.1102 3.17089 13.0126 3.07326L11.9268 1.98747ZM10.6893 5.75003L9.25002 4.31069L2.96358 10.5971C2.93354 10.6271 2.91165 10.6643 2.89997 10.7052L2.34203 12.658L4.29482 12.1C4.33567 12.0884 4.37287 12.0665 4.40292 12.0364L10.6893 5.75003Z" fill="#008FFA"/>
</svg>
