<svg width="16" height="17" viewBox="0 0 16 17" fill="none" xmlns="http://www.w3.org/2000/svg">
<path fill-rule="evenodd" clip-rule="evenodd" d="M8.00008 0C5.29894 0 3.10925 2.20324 3.10925 4.92105C3.10925 6.61162 3.9565 8.10309 5.24707 8.98903C2.25512 10.0918 0.0999403 12.9405 0.000301005 16.309C-0.0106569 16.6794 0.278928 16.9887 0.647106 16.9997C1.01529 17.0107 1.32264 16.7194 1.33359 16.3489C1.44043 12.7372 4.38431 9.8421 8 9.8421C11.6157 9.8421 14.5596 12.7372 14.6664 16.3489C14.6774 16.7194 14.9847 17.0107 15.3529 16.9997C15.7211 16.9887 16.0107 16.6794 15.9997 16.309C15.9001 12.9406 13.7449 10.0918 10.753 8.98907C12.0436 8.10314 12.8909 6.61165 12.8909 4.92105C12.8909 2.20324 10.7012 0 8.00008 0ZM4.44313 4.92105C4.44313 2.94444 6.03564 1.3421 8.00008 1.3421C9.96452 1.3421 11.557 2.94444 11.557 4.92105C11.557 6.89766 9.96452 8.5 8.00008 8.5C6.03564 8.5 4.44313 6.89766 4.44313 4.92105Z" fill="#00389A"/>
</svg>
